<svg id="Слой_1" data-name="Слой 1" xmlns="http://www.w3.org/2000/svg" viewBox="0 0 1619.34 1618.35"><defs><style>.cls-1{fill:#32bda5;}</style></defs><path class="cls-1" d="M752.79,0h110.7c3.78,1.09,7.5,2.86,11.34,3.18,61.12,5,121.09,16.2,179.43,35C1372.87,141,1591.07,417.87,1616.87,751.79c10.05,130.06-10.63,255.4-62.33,374.88-153.81,355.4-525.8,550.37-905.9,476C317.35,1537.77,56.35,1262,8.65,926.41,6.11,908.49,2.9,890.66,0,872.79V746.3c1.07-2.72,2.7-5.35,3.12-8.17,4.54-30.68,7.35-61.7,13.52-92C84.53,312.31,358.32,56.31,697.61,8.63,716,6,734.4,2.89,752.79,0Zm341.12,425.33-388,559.75c-79.48-61.85-157-122.22-235.17-183L362,941.68l382.78,298.23,494.68-713.65Z" transform="translate(0 0)"/></svg>