<svg id="Слой_1" data-name="Слой 1" xmlns="http://www.w3.org/2000/svg" viewBox="0 0 2677.45 2667.92"><defs><style>.cls-1{fill:#f34336;}</style></defs><path class="cls-1" d="M2677.45,1240.06v203.26c-5.8,37.2-11.14,74.48-17.49,111.59-47.15,275.74-165.4,517.26-364.31,714.39-343.94,340.85-758,466.13-1234.16,374C805.36,2593.79,585.08,2471,399.81,2288.22Q83.57,1976.31,15,1536.9c-4.82-31.22-10-62.39-15-93.58V1229.64c1.88-5.28,4.91-10.44,5.46-15.86C23.12,1038.27,69.07,870.53,155.88,716.6,404.81,275.16,783.51,34.53,1291.59,6.66c261.22-14.33,507.07,50,730.31,186.42C2380.09,412,2595,729.22,2662.63,1143.82,2667.85,1175.86,2672.53,1208,2677.45,1240.06Zm-1180.38,98.39c55.24-55,108.26-107.67,161.23-160.43,57.32-57.1,115.23-113.63,171.69-171.56,48.56-49.84,45-123.38-6.32-165.92-45.1-37.42-108.6-33.36-153.54,11.17Q1514.4,1006,1359.47,1161.08c-6.54,6.52-13.39,12.74-24.49,23.26-7.31-9.8-12.18-18.31-18.88-25q-149.44-149.49-299.36-298.52c-7.39-7.35-14.73-14.88-22.89-21.34-61.28-48.55-153.72-20.32-175.67,54.41-13.16,44.8-.54,83.47,32.66,116.41q154.7,153.46,308.75,307.59c6.59,6.58,12.76,13.59,20.08,21.41-7.75,8.11-14.1,15-20.76,21.68q-150.6,150.18-301.23,300.34c-8,8-16.09,16-22.76,25-50.69,68.61-8.12,165.57,76.76,175.36,40.54,4.68,72.41-11.34,100.43-39.44q152-152.47,304.89-304.07c6.65-6.61,13.61-12.91,21.67-20.53,7.92,7.39,14.94,13.58,21.56,20.17q117.43,116.93,234.75,234c27.12,27,53.45,54.87,81.65,80.72,34.57,31.69,75.62,39.15,118.91,21.48,42.41-17.31,65.18-50.89,68.25-96.55,2.51-37.26-13.81-66.69-39.83-92.47Q1671,1513.45,1518.87,1361.13C1512.2,1354.48,1505.8,1347.55,1497.07,1338.45Z" transform="translate(0 -4.69)"/></svg>