<svg id="Слой_1" data-name="Слой 1" xmlns="http://www.w3.org/2000/svg" viewBox="0 0 2003.04 1627.4"><defs><style>.cls-1{fill:#4a566e;}.cls-2{fill:#00b493;}.cls-3{fill:#02b594;}.cls-4{fill:#1d9186;}</style></defs><path class="cls-1" d="M0,360.52c.94-.77,2.55-1.42,2.73-2.34,24.21-121.94,138.93-186.76,241-188.48q11.48-.19,23-.21,611.43,0,1222.85-.28c70.84-.1,135.13,17.76,188.53,64.46,40.64,35.55,67.63,80.52,72.11,136.19,1.22,15.23,2,30.55,2,45.84q.18,347.16,0,694.33c0,7-.9,13.91-1.38,20.86q-109.35-99.09-218.64-198.2c-49.29-44.93-98-90.52-147.11-135.61-15.76-14.47-32.11-28.28-48.26-42.44-62.41,56.62-123.93,112.46-185.46,168.27-40,36.23-80.24,72.13-119.86,108.73-63,58.14-125.43,116.81-188.27,175.08-10.05,9.32-20.93,17.73-30.94,26.15-12.87-10.77-24.39-19.74-35.18-29.52q-86.77-78.7-173.22-157.78-75.18-68.88-149.74-138.44c-8.53-8-13.9-7.52-22.26.15-54.28,49.77-109.17,98.86-163.52,148.55-64.69,59.16-128.85,118.9-193.65,177.94C50.38,1255.93,24.93,1276.83,0,1298.3Zm803.3,206c-78.67.47-125.23,38.42-149.55,94.08-27,61.76,1.3,131.18,67,168.71,56,32,129.73,26.26,181-13.95,51.46-40.33,65.65-91.91,47.42-149.6C930.06,605.29,863.19,565.42,803.3,566.48Z" transform="translate(0 -169.21)"/><path class="cls-2" d="M0,1298.3c24.93-21.47,50.38-42.37,74.69-64.53,64.8-59,129-118.78,193.65-177.94,54.35-49.69,109.24-98.78,163.52-148.55,8.36-7.67,13.73-8.13,22.26-.15q74.43,69.69,149.74,138.44,86.39,79.14,173.22,157.78c10.79,9.78,22.31,18.75,35.18,29.52,10-8.42,20.89-16.83,30.94-26.15,62.84-58.27,125.31-116.94,188.27-175.08,39.62-36.6,79.9-72.5,119.86-108.73,61.53-55.81,123.05-111.65,185.46-168.27,16.15,14.16,32.5,28,48.26,42.44,49.14,45.09,97.82,90.68,147.11,135.61q109,99.4,218.64,198.2c1,8.67,2.11,17.34,3.27,26.89-26.58,3.19-51.74,5.29-76.57,9.37a403.56,403.56,0,0,0-163,65.16c-58,39.3-101.6,89.49-131.58,153.13-40.57,86.14-41,173.8-9.14,260.65,19.23,52.48,50.17,100.1,95.33,136.13,3.39,2.71,5.92,6.51,8.86,9.8q-458.42,0-916.82.06-176.09,0-352.18.14c-47.74-4-89-23.61-125.7-53.32-41.41-33.54-69.36-75.81-80.32-128.54-.18-.84-1.9-1.35-2.9-2Z" transform="translate(0 -169.21)"/><path class="cls-3" d="M1696.48,1471.73c0-37-.17-70.78,0-104.53.23-36.41,9.57-50.75,39.45-61.7a59.8,59.8,0,0,1,68.4,20.36c7.6,10.14,9.69,26.05,10.22,39.5,1.37,34.33.46,68.75.46,105.45,7.66.33,14.39.86,21.12.88,35.11.09,70.22-.39,105.31.19,32.12.54,53.19,14.63,59.38,38.22,9.45,36-12.78,66.3-51.58,67.72-37,1.35-74,.45-111,.53-6.88,0-13.76,0-23.18,0,0,18.87,0,35.85,0,52.84-.06,22.3.65,44.64-.5,66.89-1.68,32.32-25.78,53.05-59.88,52.6-29.72-.38-58.1-18.4-57.94-52.59.14-32.5-.16-65-.26-97.5,0-6.79,0-13.59,0-22.33-45.16,0-87.79.47-130.4-.15-31.35-.46-48.68-14.09-56.07-41.83-8.35-31.33,17.09-60.91,39.23-61.89,33.1-1.48,66.24-2,99.37-2.62C1663.78,1471.48,1679,1471.73,1696.48,1471.73Z" transform="translate(0 -169.21)"/><path class="cls-4" d="M209.14,1792.22q176.28-.08,352.55-.14l917.79-.06c-.45,1.44-.79,4.09-1.35,4.14-5.07.41-10.18.44-15.28.44q-600.4,0-1200.81-.18C244.41,1796.41,226.78,1793.68,209.14,1792.22Z" transform="translate(0 -169.21)"/></svg>